# This file uses centimeters as units for non-parametric coordinates.

mtllib PrincessBoolSection.mtl
g default
v -2.939190 8.934794 -1.947413
v 2.862829 8.206840 -2.022728
v -2.939190 18.934785 -1.947413
v 2.862829 19.252867 -2.022728
v -4.544636 18.934785 -4.992314
v 4.805673 19.252867 -4.926738
v -4.544636 8.934794 -4.992314
v 4.805673 8.206840 -4.926738
v 0.162196 8.934794 -3.383374
v 0.162196 8.934794 -6.627375
v 0.162196 18.934785 -6.627375
v 0.162196 18.934785 -3.383374
v 6.885550 8.206840 0.659248
v 3.398265 8.206840 0.875472
v 6.885550 19.252867 0.659248
v 3.398265 19.252867 0.875472
v -6.932407 8.934794 -0.364473
v -3.588925 8.934794 0.454066
v -3.588925 18.934785 0.454066
v -6.932407 18.934785 -0.364473
vt 0.375000 0.000000
vt 0.625000 0.000000
vt 0.375000 0.250000
vt 0.625000 0.250000
vt 0.375000 0.500000
vt 0.625000 0.500000
vt 0.375000 0.750000
vt 0.625000 0.750000
vt 0.375000 1.000000
vt 0.625000 1.000000
vt 0.875000 0.000000
vt 0.875000 0.250000
vt 0.125000 0.000000
vt 0.125000 0.250000
vt 0.516564 0.000000
vt 0.516564 1.000000
vt 0.516564 0.750000
vt 0.516564 0.500000
vt 0.516564 0.250000
vt 0.625000 0.000000
vt 0.875000 0.000000
vt 0.875000 0.250000
vt 0.625000 0.250000
vt 0.125000 0.000000
vt 0.375000 0.000000
vt 0.375000 0.250000
vt 0.125000 0.250000
vn -0.014898 0.000000 0.999889
vn -0.033130 0.000000 0.999451
vn -0.449944 0.000000 0.893057
vn -0.449944 0.000000 0.893057
vn -0.036925 0.999250 -0.011669
vn -0.037459 0.999228 -0.011838
vn -0.030783 0.999479 -0.009728
vn -0.043607 0.998954 -0.013780
vn 0.031935 0.000000 -0.999490
vn 0.023245 0.000000 -0.999730
vn 0.343903 0.000000 -0.939005
vn 0.343903 0.000000 -0.939005
vn -0.085211 -0.995999 -0.026928
vn -0.084349 -0.996080 -0.026656
vn -0.099426 -0.994549 -0.031420
vn -0.070225 -0.997284 -0.022192
vn 0.061885 0.000000 0.998083
vn 0.061885 0.000000 0.998083
vn 0.061885 0.000000 0.998083
vn 0.061885 0.000000 0.998083
vn -0.237794 0.000000 0.971316
vn -0.237794 0.000000 0.971316
vn -0.237794 0.000000 0.971316
vn -0.237794 0.000000 0.971316
vn 0.000000 -1.000000 -0.000000
vn 0.000000 -1.000000 -0.000000
vn -0.328145 0.000000 -0.944627
vn -0.328145 0.000000 -0.944627
vn 0.000000 1.000000 -0.000000
vn 0.000000 1.000000 -0.000000
vn 0.420156 0.000000 0.907452
vn 0.420156 0.000000 0.907452
vn 0.000000 -1.000000 0.000000
vn 0.000000 -1.000000 0.000000
vn 0.937147 0.000000 -0.348936
vn 0.937147 0.000000 -0.348936
vn 0.937147 0.000000 -0.348936
vn 0.937147 0.000000 -0.348936
vn 0.000000 1.000000 0.000000
vn 0.000000 1.000000 0.000000
vn -0.983359 0.000000 0.181674
vn -0.983359 0.000000 0.181674
vn -0.983359 0.000000 0.181674
vn -0.983359 0.000000 0.181674
vn 0.000000 -1.000000 0.000000
vn 0.000000 -1.000000 0.000000
vn 0.000000 -1.000000 0.000000
vn 0.000000 -1.000000 0.000000
vn 0.965294 0.000000 0.261166
vn 0.965294 0.000000 0.261166
vn 0.965294 0.000000 0.261166
vn 0.965294 0.000000 0.261166
vn 0.000000 1.000000 -0.000000
vn 0.000000 1.000000 -0.000000
vn 0.000000 1.000000 -0.000000
vn 0.000000 1.000000 -0.000000
vn -0.888683 0.000000 -0.458523
vn -0.888683 0.000000 -0.458523
vn -0.888683 0.000000 -0.458523
vn -0.888683 0.000000 -0.458523
s 1
g pCube1
usemtl initialShadingGroup
f 12/19/1 9/15/2 2/2/3 4/4/4
s 2
f 11/18/5 12/19/6 4/4/7 6/6/8
s 3
f 10/17/9 11/18/10 6/6/11 8/8/12
s 4
f 9/16/13 10/17/14 8/8/15 2/10/16
s off
f 14/20/17 13/21/18 15/22/19 16/23/20
f 17/24/21 18/25/22 19/26/23 20/27/24
s 4
f 7/7/25 10/17/14 9/16/13 1/9/26
s 3
f 5/5/27 11/18/10 10/17/9 7/7/28
s 2
f 3/3/29 12/19/6 11/18/5 5/5/30
s 1
f 1/1/31 9/15/2 12/19/1 3/3/32
s 4
f 2/2/16 8/11/15 13/21/33 14/20/34
s off
f 8/11/35 6/12/36 15/22/37 13/21/38
s 2
f 6/12/8 4/4/7 16/23/39 15/22/40
s off
f 4/4/41 2/2/42 14/20/43 16/23/44
f 7/13/45 1/1/46 18/25/47 17/24/48
f 1/1/49 3/3/50 19/26/51 18/25/52
f 3/3/53 5/14/54 20/27/55 19/26/56
f 5/14/57 7/13/58 17/24/59 20/27/60
